HIERARCHY
ROOT Hips
{
 OFFSET 0.000000 0.000000 0.000000
 CHANNELS 6 Xposition Yposition Zposition Yrotation Xrotation Zrotation
 JOINT Chest
 {
  OFFSET 0.000000 9.585900 0.002600
  CHANNELS 3 Yrotation Xrotation Zrotation
  JOINT Chest2
  {
   OFFSET 0.000000 9.601200 -0.005300
   CHANNELS 3 Yrotation Xrotation Zrotation
   JOINT Chest3
   {
    OFFSET 0.000000 9.561800 0.000000
    CHANNELS 3 Yrotation Xrotation Zrotation
    JOINT Chest4
    {
     OFFSET 0.000000 9.552100 0.000000
     CHANNELS 3 Yrotation Xrotation Zrotation
     JOINT Neck
     {
      OFFSET 0.000000 14.453000 0.000000
      CHANNELS 3 Yrotation Xrotation Zrotation
      JOINT Head
      {
       OFFSET 0.000000 8.936500 -0.011300
       CHANNELS 3 Yrotation Xrotation Zrotation
       End Site
       {
        OFFSET 0.000000 17.073600 -0.006000
       }
      }
     }
     JOINT RightCollar
     {
      OFFSET -2.921100 9.558500 0.000000
      CHANNELS 3 Yrotation Xrotation Zrotation
      JOINT RightShoulder
      {
       OFFSET -13.519700 0.000000 0.000000
       CHANNELS 3 Yrotation Xrotation Zrotation
       JOINT RightElbow
       {
        OFFSET 0.000000 -29.696600 0.000000
        CHANNELS 3 Yrotation Xrotation Zrotation
        JOINT RightWrist
        {
         OFFSET 0.000000 -24.004700 0.000000
         CHANNELS 3 Yrotation Xrotation Zrotation
         End Site
         {
          OFFSET 0.000000 -17.728500 0.000000
         }
        }
       }
      }
     }
     JOINT LeftCollar
     {
      OFFSET 2.921100 9.558500 0.000000
      CHANNELS 3 Yrotation Xrotation Zrotation
      JOINT LeftShoulder
      {
       OFFSET 13.519700 0.000000 0.000000
       CHANNELS 3 Yrotation Xrotation Zrotation
       JOINT LeftElbow
       {
        OFFSET 0.000000 -29.696600 0.000000
        CHANNELS 3 Yrotation Xrotation Zrotation
        JOINT LeftWrist
        {
         OFFSET 0.000000 -24.004700 0.000000
         CHANNELS 3 Yrotation Xrotation Zrotation
         End Site
         {
          OFFSET 0.000000 -17.728500 0.000000
         }
        }
       }
      }
     }
    }
   }
  }
 }
 JOINT RightHip
 {
  OFFSET -7.771700 -0.012900 -0.001300
  CHANNELS 3 Yrotation Xrotation Zrotation
  JOINT RightKnee
  {
   OFFSET 0.000000 -40.869800 0.001200
   CHANNELS 3 Yrotation Xrotation Zrotation
   JOINT RightAnkle
   {
    OFFSET 0.000000 -39.717900 0.002100
    CHANNELS 3 Yrotation Xrotation Zrotation
    JOINT RightToe
    {
     OFFSET 0.000000 -4.965400 11.033500
     CHANNELS 3 Yrotation Xrotation Zrotation
     End Site
     {
      OFFSET 0.000000 -1.423100 5.872300
     }
    }
   }
  }
 }
 JOINT LeftHip
 {
  OFFSET 7.771700 -0.012900 -0.001300
  CHANNELS 3 Yrotation Xrotation Zrotation
  JOINT LeftKnee
  {
   OFFSET 0.000000 -40.869800 0.001200
   CHANNELS 3 Yrotation Xrotation Zrotation
   JOINT LeftAnkle
   {
    OFFSET 0.000000 -39.717900 0.002100
    CHANNELS 3 Yrotation Xrotation Zrotation
    JOINT LeftToe
    {
     OFFSET 0.000000 -4.965400 11.033500
     CHANNELS 3 Yrotation Xrotation Zrotation
     End Site
     {
      OFFSET 0.000000 -1.423100 5.872300
     }
    }
   }
  }
 }
}
MOTION
Frames: 12
Frame Time: 0.008333
0.000000 85.388000 0.000000 0.000000 -5.767877 0.000000 0.000000 11.653817 0.000000 0.000000 -5.885947 0.000000 0.000000 -0.000000 0.000000 0.000000 -0.000000 0.000000 0.000000 12.528835 0.000000 0.000000 0.711642 0.000000 0.000000 -0.000000 0.000000 0.000000 0.000000 -90.000000 0.000000 -2.309062 0.000000 0.000000 2.309062 0.000000 0.000000 -0.000000 0.000000 0.000000 -0.000000 90.000000 0.000000 -2.309062 0.000000 0.000000 2.309062 0.000000 0.000000 8.520406 0.000000 0.000000 1.905762 0.000000 -0.000000 -4.658285 0.000000 0.000000 -0.000000 0.000000 0.000000 8.520406 0.000000 0.000000 1.905762 0.000000 -0.000000 -4.658285 0.000000 0.000000 -0.000000 0.000000
-48.602552 57.789780 11.429351 179.469467 -48.646003 -3.185358 3.301994 24.606030 3.412094 1.648374 14.041287 1.764776 2.106018 17.620338 2.270588 1.658653 14.009719 1.760202 -0.367647 7.252049 -0.169948 -0.587081 -22.449800 -0.165201 4.464261 -6.238896 -0.292563 11.511122 -23.817475 -15.726158 -70.193125 -36.601050 137.642871 13.133197 7.749146 13.980628 -12.593488 -10.484460 -1.155569 -9.204186 -17.838013 14.784425 84.002603 -43.453402 -141.004761 -5.378580 -2.996907 -11.251718 4.370203 -22.704954 -4.089126 -34.107999 74.731247 -38.812251 5.898007 -16.216832 12.155103 -0.006748 -0.068438 0.017776 -6.396398 -20.616252 5.263272 86.995407 82.727137 86.294169 0.241845 -21.814272 -17.409349 0.038700 0.070823 0.011641
-48.603299 57.791449 11.436333 179.463632 -48.650388 -3.180609 3.288383 24.639566 3.393731 1.648848 14.051850 1.766775 2.087066 17.675140 2.247459 1.673217 13.991598 1.769295 -0.426571 7.227324 -0.186759 -0.659785 -22.576775 -0.152224 4.435378 -6.141167 -0.309096 11.470104 -23.824153 -15.683068 -70.166822 -36.628053 137.637049 13.119165 7.754758 13.995979 -12.581025 -10.388760 -1.171833 -9.081922 -17.881717 14.724629 83.890598 -43.437404 -141.010084 -5.407124 -2.964938 -11.240924 4.374482 -22.699935 -4.085329 -34.089362 74.719898 -38.799160 5.893517 -16.206239 12.159896 -0.019480 -0.064444 0.012723 -6.397863 -20.612323 5.263910 86.918968 82.725260 86.213040 0.240156 -21.803921 -17.408621 0.038851 0.070153 0.012582
-48.603470 57.793155 11.445039 179.462434 -48.654414 -3.182393 3.279490 24.667245 3.375132 1.621192 14.129593 1.732065 2.117245 17.645724 2.252734 1.657237 14.036276 1.774262 -0.417322 7.131285 -0.188284 -0.786976 -22.678276 -0.139492 4.427028 -6.089939 -0.311032 11.380592 -23.866767 -15.617174 -70.108166 -36.643502 137.635985 13.118028 7.795670 14.029638 -12.553409 -10.337339 -1.169585 -8.919227 -17.947773 14.656048 83.743905 -43.424968 -141.018307 -5.437111 -2.952981 -11.232240 4.378875 -22.692901 -4.073731 -34.080209 74.702894 -38.793211 5.886598 -16.200964 12.161424 -0.019964 -0.055336 0.013517 -6.426345 -20.608111 5.274391 86.853210 82.724109 86.123876 0.237549 -21.791447 -17.408702 0.040924 0.070085 0.012464
-48.603279 57.797685 11.452723 179.458143 -48.681148 -3.183167 3.278055 24.712055 3.354571 1.626253 14.141355 1.725786 2.118603 17.668074 2.239973 1.648055 14.075014 1.773295 -0.480612 7.067058 -0.203126 -0.871277 -22.779827 -0.100525 4.405453 -6.024819 -0.287051 11.249481 -23.936930 -15.534583 -70.017894 -36.641552 137.638536 13.133863 7.865461 14.078438 -12.548114 -10.269851 -1.159411 -8.736756 -18.025935 14.588590 83.576781 -43.408333 -141.032890 -5.472183 -2.951530 -11.214805 4.382246 -22.662816 -4.056485 -34.086676 74.688645 -38.801902 5.877870 -16.201629 12.156048 -0.001103 -0.051109 0.013325 -6.455721 -20.579678 5.284765 86.820193 82.721473 86.062216 0.237826 -21.780177 -17.408633 0.036666 0.067994 0.011129
-48.603108 57.799916 11.463504 179.456619 -48.690047 -3.185156 3.277954 24.724578 3.341477 1.628169 14.153151 1.717963 2.124275 17.673820 2.241591 1.638653 14.123553 1.746854 -0.554950 7.014468 -0.212158 -0.966321 -22.853424 -0.052565 4.374208 -5.949288 -0.244684 11.086630 -24.025153 -15.441495 -69.899369 -36.670276 137.693548 13.128628 7.927149 14.078081 -12.563553 -10.194879 -1.148657 -8.560588 -18.107123 14.532248 83.407347 -43.377734 -141.050235 -5.515395 -2.948933 -11.182843 4.381153 -22.655297 -4.043632 -34.082420 74.680645 -38.802767 5.882473 -16.203558 12.150680 -0.006095 -0.044720 0.016994 -6.506943 -20.566659 5.302410 86.787578 82.716588 85.983470 0.241544 -21.774413 -17.411822 0.030697 0.073022 0.011608
-48.603083 57.803270 11.473963 179.444661 -48.709327 -3.177518 3.286788 24.743666 3.338179 1.629118 14.158311 1.691276 2.123579 17.696173 2.216969 1.630677 14.163761 1.707260 -0.591585 6.954500 -0.168239 -1.087099 -22.893795 -0.006081 4.355411 -5.886774 -0.153450 10.910033 -24.123222 -15.344918 -69.780338 -36.614950 137.693589 13.186545 8.037584 14.157561 -12.579715 -10.128872 -1.098407 -8.410815 -18.181263 14.491328 83.252741 -43.332355 -141.064650 -5.571376 -2.944932 -11.139364 4.386261 -22.638229 -4.027938 -34.048729 74.670827 -38.779359 5.864698 -16.199765 12.147194 -0.001747 -0.035661 0.024867 -6.515114 -20.545871 5.305227 86.684551 82.708867 85.865915 0.241703 -21.761889 -17.414564 0.032921 0.073161 0.012801
-48.603465 57.809273 11.482459 179.449715 -48.749531 -3.179289 3.286807 24.779156 3.316395 1.636824 14.159234 1.676235 2.127383 17.708205 2.200675 1.638233 14.170723 1.722454 -0.655854 6.943025 -0.172814 -1.218049 -22.904933 0.046551 4.322474 -5.781004 -0.101970 10.732189 -24.225696 -15.250644 -69.663372 -36.545555 137.705349 13.250145 8.157011 14.229489 -12.615700 -10.043486 -1.108912 -8.335634 -18.253167 14.513830 83.150804 -43.241252 -141.055265 -5.638280 -2.937082 -11.093029 4.380751 -22.595067 -4.015442 -33.996573 74.658359 -38.738246 5.851451 -16.185055 12.150809 -0.015815 -0.040604 0.020193 -6.550002 -20.504138 5.307074 86.631654 82.703368 85.778006 0.246574 -21.745929 -17.412615 0.028457 0.066039 0.011102
-48.604079 57.812417 11.493498 179.452829 -48.767576 -3.177488 3.297877 24.769511 3.290374 1.637909 14.173125 1.679515 2.130985 17.713191 2.188516 1.640828 14.182256 1.738653 -0.686567 6.939811 -0.167584 -1.391923 -22.884405 0.085808 4.291619 -5.673337 -0.059184 10.557934 -24.328691 -15.162873 -69.522489 -36.545270 137.744885 13.275202 8.208990 14.252912 -12.648542 -9.981971 -1.122645 -8.275047 -18.295459 14.522389 83.074448 -43.150417 -141.058864 -5.709026 -2.922616 -11.047461 4.371445 -22.578266 -4.005500 -33.970449 74.647832 -38.726521 5.847736 -16.176663 12.151884 0.014668 -0.051246 0.017755 -6.584196 -20.484997 5.307456 86.549248 82.694534 85.662389 0.251640 -21.732010 -17.411343 0.022891 0.069998 0.008417
-48.602732 57.813274 11.506486 179.442376 -48.767501 -3.176301 3.319591 24.744130 3.284187 1.640589 14.179227 1.675896 2.131492 17.723663 2.196072 1.639489 14.184534 1.704082 -0.715392 6.945970 -0.134014 -1.574883 -22.835553 0.127783 4.275120 -5.619285 0.004702 10.374346 -24.382432 -15.066063 -69.420567 -36.452930 137.768444 13.345738 8.334033 14.318034 -12.703171 -9.903690 -1.128473 -8.249923 -18.318917 14.480681 83.052472 -43.149722 -141.070721 -5.782805 -2.904316 -11.000771 4.369185 -22.580366 -3.995682 -33.896772 74.626204 -38.654912 5.862547 -16.160498 12.147229 0.003869 -0.045096 0.014057 -6.616250 -20.484119 5.324401 86.475225 82.689261 85.554340 0.255998 -21.719853 -17.409473 0.020507 0.072183 0.005920
-48.604699 57.816063 11.516975 179.449761 -48.783476 -3.167253 3.314426 24.750494 3.264742 1.646717 14.169095 1.661586 2.132618 17.735516 2.203728 1.641866 14.162188 1.630064 -0.844500 6.999847 -0.107487 -1.678266 -22.781445 0.204909 4.250444 -5.544624 0.109806 10.214151 -24.442427 -14.981047 -69.306475 -36.409074 137.790710 13.401249 8.415391 14.311993 -12.781264 -9.787028 -1.117462 -8.302357 -18.359181 14.524921 83.083783 -43.115921 -141.051727 -5.853120 -2.889622 -10.952235 4.360871 -22.564049 -4.008845 -33.848531 74.619839 -38.606862 5.853352 -16.163269 12.149519 0.011217 -0.032157 0.005032 -6.650162 -20.467088 5.314502 86.335707 82.682470 85.377438 0.259321 -21.698864 -17.403078 0.014289 0.068966 0.004171
-48.603621 57.821885 11.524299 179.447522 -48.823114 -3.167540 3.323844 24.778508 3.263240 1.653189 14.158730 1.650639 2.137762 17.737608 2.190545 1.646920 14.159761 1.629126 -0.940865 7.045330 -0.113473 -1.816049 -22.707477 0.259702 4.202738 -5.368966 0.179978 10.129076 -24.610287 -14.947614 -69.222215 -36.326707 137.809376 13.461368 8.518708 14.350182 -12.814488 -9.735698 -1.110711 -8.404282 -18.370450 14.541679 83.131265 -43.072875 -141.022199 -5.919274 -2.871390 -10.906220 4.356384 -22.524361 -4.003983 -33.798997 74.612983 -38.548313 5.845756 -16.154822 12.139783 0.018788 -0.040982 0.003270 -6.677860 -20.422408 5.321379 86.279388 82.679466 85.289143 0.261451 -21.687466 -17.400323 0.009389 0.065660 0.002637
